<?xml version="1.0" encoding="UTF-8"?>
<svg xmlns="http://www.w3.org/2000/svg"
    xmlns:xlink="http://www.w3.org/1999/xlink" width="103pt" height="42pt" viewBox="0 0 103 42" version="1.1">
    <g id="surface1">
        <path style=" stroke:none;fill-rule:nonzero;fill:rgb(99.215686%,81.568627%,0%);fill-opacity:1;" d="M 6.738281 5.605469 L 24.542969 5.605469 L 24.542969 31.691406 L 6.738281 31.691406 Z M 6.738281 5.605469 "/>
        <path style=" stroke:none;fill-rule:nonzero;fill:rgb(23.921569%,23.921569%,23.921569%);fill-opacity:1;" d="M 11.757812 17.449219 L 10.25 8.175781 L 12.894531 8.175781 L 13.472656 12.476562 C 13.535156 12.9375 13.582031 13.390625 13.621094 13.839844 C 13.65625 14.289062 13.707031 14.75 13.769531 15.222656 L 13.824219 15.222656 C 13.886719 14.75 13.949219 14.28125 14.011719 13.820312 C 14.074219 13.359375 14.152344 12.910156 14.253906 12.476562 L 14.832031 9.410156 L 16.824219 9.410156 L 17.417969 12.476562 C 17.515625 12.9375 17.601562 13.390625 17.675781 13.839844 C 17.75 14.289062 17.820312 14.75 17.882812 15.222656 L 17.957031 15.222656 C 18.019531 14.75 18.066406 14.289062 18.09375 13.839844 C 18.125 13.390625 18.167969 12.9375 18.214844 12.476562 L 18.738281 8.175781 L 21.265625 8.175781 L 19.851562 17.449219 L 16.636719 17.449219 L 16.132812 14.4375 C 16.070312 14.039062 16.015625 13.617188 15.964844 13.167969 C 15.914062 12.71875 15.859375 12.226562 15.796875 11.691406 L 15.722656 11.691406 C 15.683594 12.089844 15.640625 12.503906 15.59375 12.925781 C 15.542969 13.347656 15.480469 13.855469 15.40625 14.4375 L 14.921875 17.449219 Z M 11.757812 17.449219 "/>
        <path style=" stroke:none;fill-rule:nonzero;fill:rgb(23.921569%,23.921569%,23.921569%);fill-opacity:1;" d="M 16.300781 29.859375 C 15.582031 29.859375 14.90625 29.75 14.28125 29.535156 C 13.652344 29.316406 13.109375 29 12.652344 28.589844 C 12.191406 28.175781 11.832031 27.671875 11.570312 27.066406 C 11.3125 26.460938 11.179688 25.773438 11.179688 25 C 11.179688 24.242188 11.316406 23.558594 11.582031 22.953125 C 11.847656 22.351562 12.203125 21.839844 12.652344 21.421875 C 13.097656 21.003906 13.609375 20.6875 14.1875 20.46875 C 14.765625 20.25 15.363281 20.140625 15.984375 20.140625 C 16.691406 20.140625 17.316406 20.253906 17.863281 20.480469 C 18.410156 20.703125 18.867188 21.015625 19.230469 21.414062 C 19.597656 21.8125 19.875 22.28125 20.058594 22.824219 C 20.246094 23.367188 20.339844 23.957031 20.339844 24.589844 C 20.339844 24.839844 20.324219 25.082031 20.292969 25.308594 C 20.261719 25.539062 20.234375 25.710938 20.207031 25.824219 L 13.917969 25.824219 C 14.054688 26.496094 14.359375 26.992188 14.828125 27.300781 C 15.300781 27.613281 15.914062 27.769531 16.671875 27.769531 C 17.09375 27.769531 17.496094 27.710938 17.871094 27.601562 C 18.25 27.488281 18.644531 27.328125 19.054688 27.113281 L 19.964844 28.78125 C 19.433594 29.117188 18.84375 29.378906 18.199219 29.574219 C 17.554688 29.765625 16.917969 29.859375 16.300781 29.859375 Z M 16.074219 22.234375 C 15.527344 22.234375 15.074219 22.375 14.707031 22.664062 C 14.339844 22.949219 14.089844 23.386719 13.953125 23.972656 L 17.898438 23.972656 C 17.765625 22.8125 17.15625 22.234375 16.074219 22.234375 Z M 16.074219 22.234375 "/>
        <path style=" stroke:none;fill-rule:nonzero;fill:rgb(23.921569%,23.921569%,23.921569%);fill-opacity:1;" d="M 26.972656 31.121094 L 26.972656 5.605469 L 34.796875 5.605469 C 35.972656 5.605469 37.074219 5.738281 38.105469 5.996094 C 39.128906 6.257812 40.035156 6.695312 40.8125 7.308594 C 41.59375 7.921875 42.207031 8.738281 42.660156 9.753906 C 43.113281 10.769531 43.339844 12.035156 43.339844 13.550781 C 43.339844 15.429688 42.976562 16.972656 42.253906 18.1875 C 41.53125 19.398438 40.582031 20.308594 39.40625 20.90625 L 44.386719 31.121094 L 38.796875 31.121094 L 34.5625 21.925781 L 31.953125 21.925781 L 31.953125 31.121094 Z M 31.953125 17.347656 L 34.394531 17.347656 C 37.082031 17.347656 38.425781 16.082031 38.425781 13.550781 C 38.425781 12.296875 38.085938 11.425781 37.410156 10.929688 C 36.730469 10.433594 35.726562 10.1875 34.394531 10.1875 L 31.953125 10.1875 Z M 31.953125 17.347656 "/>
        <path style=" stroke:none;fill-rule:nonzero;fill:rgb(23.921569%,23.921569%,23.921569%);fill-opacity:1;" d="M 52.296875 20.246094 C 52.929688 20.644531 53.386719 21.191406 53.671875 21.875 L 53.671875 16.039062 L 57.183594 16.039062 L 57.183594 31.300781 L 53.671875 31.300781 L 53.671875 29.21875 C 53.386719 29.90625 52.925781 30.449219 52.296875 30.847656 C 51.667969 31.246094 50.914062 31.445312 50.039062 31.445312 C 49.09375 31.445312 48.25 31.207031 47.503906 30.734375 C 46.757812 30.257812 46.167969 29.574219 45.738281 28.679688 C 45.308594 27.789062 45.089844 26.742188 45.089844 25.546875 C 45.089844 24.335938 45.304688 23.289062 45.738281 22.402344 C 46.171875 21.515625 46.757812 20.835938 47.503906 20.359375 C 48.25 19.886719 49.097656 19.648438 50.039062 19.648438 C 50.914062 19.648438 51.667969 19.847656 52.296875 20.246094 Z M 49.351562 23.484375 C 48.894531 23.980469 48.664062 24.667969 48.664062 25.546875 C 48.664062 26.429688 48.894531 27.117188 49.351562 27.609375 C 49.808594 28.105469 50.414062 28.351562 51.167969 28.351562 C 51.90625 28.351562 52.515625 28.097656 52.984375 27.589844 C 53.457031 27.082031 53.691406 26.402344 53.691406 25.546875 C 53.691406 24.683594 53.457031 23.996094 52.984375 23.496094 C 52.511719 22.996094 51.90625 22.742188 51.167969 22.742188 C 50.414062 22.742188 49.808594 22.992188 49.351562 23.484375 Z M 49.351562 23.484375 "/>
        <path style=" stroke:none;fill-rule:nonzero;fill:rgb(23.921569%,23.921569%,23.921569%);fill-opacity:1;" d="M 70.234375 26.1875 L 62.289062 26.1875 C 62.328125 27.054688 62.546875 27.675781 62.945312 28.054688 C 63.339844 28.433594 63.847656 28.621094 64.464844 28.621094 C 64.984375 28.621094 65.414062 28.492188 65.757812 28.230469 C 66.101562 27.96875 66.324219 27.632812 66.4375 27.21875 L 70.152344 27.21875 C 70.003906 28.03125 69.675781 28.757812 69.167969 29.394531 C 68.660156 30.035156 68.019531 30.539062 67.238281 30.902344 C 66.457031 31.265625 65.589844 31.445312 64.628906 31.445312 C 63.507812 31.445312 62.511719 31.210938 61.640625 30.734375 C 60.773438 30.261719 60.089844 29.578125 59.597656 28.683594 C 59.105469 27.792969 58.859375 26.746094 58.859375 25.550781 C 58.859375 24.339844 59.101562 23.292969 59.589844 22.40625 C 60.074219 21.519531 60.757812 20.839844 61.632812 20.363281 C 62.507812 19.890625 63.507812 19.652344 64.632812 19.652344 C 65.769531 19.652344 66.765625 19.886719 67.628906 20.355469 C 68.492188 20.824219 69.160156 21.480469 69.632812 22.324219 C 70.105469 23.167969 70.339844 24.140625 70.339844 25.242188 C 70.335938 25.527344 70.304688 25.84375 70.234375 26.1875 Z M 66.179688 23 C 65.761719 22.621094 65.246094 22.433594 64.628906 22.433594 C 63.984375 22.433594 63.449219 22.625 63.027344 23.011719 C 62.601562 23.394531 62.363281 23.960938 62.308594 24.703125 L 66.785156 24.703125 C 66.796875 23.945312 66.597656 23.378906 66.179688 23 Z M 66.179688 23 "/>
        <path style=" stroke:none;fill-rule:nonzero;fill:rgb(23.921569%,23.921569%,23.921569%);fill-opacity:1;" d="M 77.152344 27.859375 L 79.636719 19.792969 L 83.375 19.792969 L 79.308594 31.300781 L 74.957031 31.300781 L 70.890625 19.792969 L 74.628906 19.792969 Z M 77.152344 27.859375 "/>
        <path style=" stroke:none;fill-rule:nonzero;fill:rgb(23.921569%,23.921569%,23.921569%);fill-opacity:1;" d="M 92.019531 20.742188 C 92.886719 21.472656 93.429688 22.433594 93.652344 23.628906 L 90.367188 23.628906 C 90.269531 23.164062 90.054688 22.796875 89.71875 22.527344 C 89.382812 22.257812 88.960938 22.125 88.457031 22.125 C 88.058594 22.125 87.757812 22.210938 87.554688 22.382812 C 87.347656 22.554688 87.246094 22.796875 87.246094 23.113281 C 87.246094 23.472656 87.433594 23.738281 87.808594 23.917969 C 88.1875 24.097656 88.777344 24.277344 89.585938 24.453125 C 90.464844 24.660156 91.179688 24.871094 91.742188 25.085938 C 92.304688 25.296875 92.789062 25.644531 93.199219 26.125 C 93.609375 26.609375 93.816406 27.253906 93.816406 28.0625 C 93.816406 28.722656 93.636719 29.308594 93.28125 29.816406 C 92.925781 30.324219 92.414062 30.722656 91.742188 31.011719 C 91.070312 31.300781 90.277344 31.445312 89.359375 31.445312 C 87.8125 31.445312 86.574219 31.101562 85.644531 30.414062 C 84.710938 29.726562 84.144531 28.742188 83.941406 27.464844 L 87.328125 27.464844 C 87.382812 27.960938 87.59375 28.335938 87.953125 28.597656 C 88.316406 28.859375 88.785156 28.992188 89.359375 28.992188 C 89.757812 28.992188 90.058594 28.898438 90.261719 28.710938 C 90.46875 28.527344 90.570312 28.28125 90.570312 27.980469 C 90.570312 27.582031 90.382812 27.296875 90.007812 27.125 C 89.628906 26.953125 89.015625 26.769531 88.167969 26.578125 C 87.320312 26.398438 86.621094 26.207031 86.074219 26 C 85.527344 25.792969 85.054688 25.460938 84.660156 25 C 84.261719 24.539062 84.0625 23.910156 84.0625 23.113281 C 84.0625 22.082031 84.453125 21.246094 85.234375 20.609375 C 86.015625 19.96875 87.117188 19.648438 88.542969 19.648438 C 89.988281 19.648438 91.148438 20.015625 92.019531 20.742188 Z M 92.019531 20.742188 "/>
    </g>
</svg>
